<svg width="54" height="54" viewBox="0 0 54 54" fill="none" xmlns="http://www.w3.org/2000/svg">
<path d="M21.9391 19.9998C21.9388 20.5302 21.7279 21.0388 21.3526 21.4137C20.9773 21.7886 20.4685 21.999 19.9381 21.9988C19.4077 21.9985 18.8991 21.7875 18.5242 21.4123C18.1493 21.037 17.9388 20.5282 17.9391 19.9978C17.9394 19.4673 18.1503 18.9587 18.5256 18.5839C18.9008 18.209 19.4097 17.9985 19.9401 17.9988C20.4705 17.999 20.9791 18.21 21.354 18.5853C21.7289 18.9605 21.9394 19.4693 21.9391 19.9998ZM21.9991 23.4798H17.9991V35.9998H21.9991V23.4798ZM28.3191 23.4798H24.3391V35.9998H28.2791V29.4298C28.2791 25.7698 33.0491 25.4298 33.0491 29.4298V35.9998H36.9991V28.0698C36.9991 21.8998 29.9391 22.1298 28.2791 25.1598L28.3191 23.4798Z" fill="#0168FC"/>
<rect x="0.5" y="0.5" width="53" height="53" rx="26.5" stroke="#CBD7E8"/>
</svg>
