<svg width="54" height="54" viewBox="0 0 54 54" fill="none" xmlns="http://www.w3.org/2000/svg">
<path d="M27.0003 24.2308C26.2659 24.2308 25.5615 24.5226 25.0422 25.0419C24.5228 25.5612 24.2311 26.2656 24.2311 27.0001C24.2311 27.7345 24.5228 28.4389 25.0422 28.9582C25.5615 29.4775 26.2659 29.7693 27.0003 29.7693C27.7347 29.7693 28.4391 29.4775 28.9584 28.9582C29.4778 28.4389 29.7695 27.7345 29.7695 27.0001C29.7695 26.2656 29.4778 25.5612 28.9584 25.0419C28.4391 24.5226 27.7347 24.2308 27.0003 24.2308ZM27.0003 22.3847C28.2244 22.3847 29.3983 22.8709 30.2639 23.7365C31.1294 24.602 31.6157 25.776 31.6157 27.0001C31.6157 28.2241 31.1294 29.3981 30.2639 30.2636C29.3983 31.1292 28.2244 31.6154 27.0003 31.6154C25.7762 31.6154 24.6023 31.1292 23.7367 30.2636C22.8712 29.3981 22.3849 28.2241 22.3849 27.0001C22.3849 25.776 22.8712 24.602 23.7367 23.7365C24.6023 22.8709 25.7762 22.3847 27.0003 22.3847ZM33.0003 22.1539C33.0003 22.4599 32.8787 22.7534 32.6623 22.9698C32.446 23.1862 32.1525 23.3077 31.8465 23.3077C31.5404 23.3077 31.2469 23.1862 31.0306 22.9698C30.8142 22.7534 30.6926 22.4599 30.6926 22.1539C30.6926 21.8479 30.8142 21.5544 31.0306 21.338C31.2469 21.1216 31.5404 21.0001 31.8465 21.0001C32.1525 21.0001 32.446 21.1216 32.6623 21.338C32.8787 21.5544 33.0003 21.8479 33.0003 22.1539ZM27.0003 19.6154C24.7166 19.6154 24.3437 19.6219 23.2812 19.669C22.5575 19.7031 22.072 19.8001 21.6215 19.9754C21.2209 20.1305 20.932 20.3161 20.6246 20.6244C20.3357 20.9035 20.1135 21.2443 19.9748 21.6213C19.7994 22.0736 19.7025 22.5582 19.6692 23.281C19.6212 24.3001 19.6157 24.6564 19.6157 27.0001C19.6157 29.2837 19.6221 29.6567 19.6692 30.7191C19.7034 31.4419 19.8003 31.9284 19.9748 32.3779C20.1317 32.7794 20.3163 33.0684 20.6228 33.3748C20.9338 33.685 21.2228 33.8705 21.6197 34.0237C22.0757 34.2001 22.5612 34.2979 23.2812 34.3311C24.3003 34.3791 24.6566 34.3847 27.0003 34.3847C29.284 34.3847 29.6569 34.3782 30.7194 34.3311C31.4412 34.297 31.9277 34.2001 32.3781 34.0256C32.7778 33.8696 33.0686 33.6841 33.3751 33.3776C33.6861 33.0665 33.8717 32.7776 34.0249 32.3807C34.2003 31.9256 34.2981 31.4391 34.3314 30.7191C34.3794 29.7001 34.3849 29.3437 34.3849 27.0001C34.3849 24.7164 34.3785 24.3434 34.3314 23.281C34.2972 22.5591 34.2003 22.0717 34.0249 21.6213C33.8858 21.2447 33.6641 20.904 33.376 20.6244C33.097 20.3353 32.7562 20.1131 32.3791 19.9745C31.9268 19.7991 31.4412 19.7022 30.7194 19.669C29.7003 19.621 29.344 19.6154 27.0003 19.6154ZM27.0003 17.7693C29.5083 17.7693 29.8212 17.7785 30.8052 17.8247C31.7883 17.8708 32.4575 18.025 33.0464 18.2539C33.6557 18.4884 34.1689 18.8059 34.6821 19.3182C35.1515 19.7797 35.5147 20.3378 35.7465 20.9539C35.9745 21.5419 36.1295 22.2121 36.1757 23.1951C36.2191 24.1791 36.2311 24.4921 36.2311 27.0001C36.2311 29.5081 36.2218 29.821 36.1757 30.805C36.1295 31.7881 35.9745 32.4573 35.7465 33.0462C35.5154 33.6626 35.1521 34.2209 34.6821 34.6819C34.2206 35.1511 33.6624 35.5143 33.0464 35.7462C32.4585 35.9742 31.7883 36.1293 30.8052 36.1754C29.8212 36.2188 29.5083 36.2308 27.0003 36.2308C24.4923 36.2308 24.1794 36.2216 23.1954 36.1754C22.2123 36.1293 21.5431 35.9742 20.9541 35.7462C20.3378 35.515 19.7796 35.1517 19.3185 34.6819C18.849 34.2205 18.4858 33.6623 18.2541 33.0462C18.0252 32.4582 17.8711 31.7881 17.8249 30.805C17.7815 29.821 17.7695 29.5081 17.7695 27.0001C17.7695 24.4921 17.7788 24.1791 17.8249 23.1951C17.8711 22.2111 18.0252 21.5428 18.2541 20.9539C18.4851 20.3375 18.8484 19.7791 19.3185 19.3182C19.7797 18.8486 20.3379 18.4853 20.9541 18.2539C21.5431 18.025 22.2114 17.8708 23.1954 17.8247C24.1794 17.7813 24.4923 17.7693 27.0003 17.7693Z" fill="#0168FC"/>
<rect x="0.5" y="0.5" width="53" height="53" rx="26.5" stroke="#CBD7E8"/>
</svg>
